<svg id="visual" viewBox="0 0 900 200" width="900" height="200" xmlns="http://www.w3.org/2000/svg" xmlns:xlink="http://www.w3.org/1999/xlink" version="1.1"><rect x="0" y="0" width="900" height="200" fill="#161623"></rect><path d="M0 78L13.7 83.2C27.3 88.3 54.7 98.7 82 100.2C109.3 101.7 136.7 94.3 163.8 92C191 89.7 218 92.3 245.2 88.2C272.3 84 299.7 73 327 70.2C354.3 67.3 381.7 72.7 409 82.3C436.3 92 463.7 106 491 111C518.3 116 545.7 112 573 110.8C600.3 109.7 627.7 111.3 654.8 104.2C682 97 709 81 736.2 81.5C763.3 82 790.7 99 818 97.7C845.3 96.3 872.7 76.7 886.3 66.8L900 57L900 201L886.3 201C872.7 201 845.3 201 818 201C790.7 201 763.3 201 736.2 201C709 201 682 201 654.8 201C627.7 201 600.3 201 573 201C545.7 201 518.3 201 491 201C463.7 201 436.3 201 409 201C381.7 201 354.3 201 327 201C299.7 201 272.3 201 245.2 201C218 201 191 201 163.8 201C136.7 201 109.3 201 82 201C54.7 201 27.3 201 13.7 201L0 201Z" fill="#839395"></path><path d="M0 74L13.7 81.5C27.3 89 54.7 104 82 105.5C109.3 107 136.7 95 163.8 95.2C191 95.3 218 107.7 245.2 117C272.3 126.3 299.7 132.7 327 130.7C354.3 128.7 381.7 118.3 409 107.7C436.3 97 463.7 86 491 85.7C518.3 85.3 545.7 95.7 573 105.7C600.3 115.7 627.7 125.3 654.8 130.5C682 135.7 709 136.3 736.2 129.7C763.3 123 790.7 109 818 104.3C845.3 99.7 872.7 104.3 886.3 106.7L900 109L900 201L886.3 201C872.7 201 845.3 201 818 201C790.7 201 763.3 201 736.2 201C709 201 682 201 654.8 201C627.7 201 600.3 201 573 201C545.7 201 518.3 201 491 201C463.7 201 436.3 201 409 201C381.7 201 354.3 201 327 201C299.7 201 272.3 201 245.2 201C218 201 191 201 163.8 201C136.7 201 109.3 201 82 201C54.7 201 27.3 201 13.7 201L0 201Z" fill="#76878a"></path><path d="M0 121L13.7 125C27.3 129 54.7 137 82 135.2C109.3 133.3 136.7 121.7 163.8 118.5C191 115.3 218 120.7 245.2 128.7C272.3 136.7 299.7 147.3 327 152.2C354.3 157 381.7 156 409 155.5C436.3 155 463.7 155 491 150.5C518.3 146 545.7 137 573 130.5C600.3 124 627.7 120 654.8 124.2C682 128.3 709 140.7 736.2 142.8C763.3 145 790.7 137 818 132C845.3 127 872.7 125 886.3 124L900 123L900 201L886.3 201C872.7 201 845.3 201 818 201C790.7 201 763.3 201 736.2 201C709 201 682 201 654.8 201C627.7 201 600.3 201 573 201C545.7 201 518.3 201 491 201C463.7 201 436.3 201 409 201C381.7 201 354.3 201 327 201C299.7 201 272.3 201 245.2 201C218 201 191 201 163.8 201C136.7 201 109.3 201 82 201C54.7 201 27.3 201 13.7 201L0 201Z" fill="#697b7e"></path><path d="M0 171L13.7 168.7C27.3 166.3 54.7 161.7 82 162.8C109.3 164 136.7 171 163.8 173.2C191 175.3 218 172.7 245.2 166.5C272.3 160.3 299.7 150.7 327 145.7C354.3 140.7 381.7 140.3 409 146.2C436.3 152 463.7 164 491 166.7C518.3 169.3 545.7 162.7 573 161C600.3 159.3 627.7 162.7 654.8 161.3C682 160 709 154 736.2 155C763.3 156 790.7 164 818 165.8C845.3 167.7 872.7 163.3 886.3 161.2L900 159L900 201L886.3 201C872.7 201 845.3 201 818 201C790.7 201 763.3 201 736.2 201C709 201 682 201 654.8 201C627.7 201 600.3 201 573 201C545.7 201 518.3 201 491 201C463.7 201 436.3 201 409 201C381.7 201 354.3 201 327 201C299.7 201 272.3 201 245.2 201C218 201 191 201 163.8 201C136.7 201 109.3 201 82 201C54.7 201 27.3 201 13.7 201L0 201Z" fill="#5c7073"></path></svg>